<svg viewBox="0 -44 511.99952 511" xmlns="http://www.w3.org/2000/svg"><path d="m511.226562 154.546875c-18.839843 106.132813-46.449218 144.277344-96.546874 160.675781-10.035157 3.285156-18.621094-7.734375-13.1875-16.792968 28.664062-47.789063.015624-80.207032 14.121093-160.222657 5-28.335937 33.285157-47.988281 61.742188-39.574219 23.863281 7.050782 38.21875 31.410157 33.871093 55.914063zm0 0" fill="#a2d3ee"/><path d="m443.683594 154.761719c-.433594 0-.871094-.039063-1.3125-.117188-4.078125-.71875-6.800782-4.609375-6.082032-8.6875l1.648438-9.363281c.722656-4.078125 4.613281-6.800781 8.6875-6.082031 4.082031.71875 6.804688 4.609375 6.085938 8.6875l-1.648438 9.363281c-.644531 3.636719-3.808594 6.199219-7.378906 6.199219zm0 0" fill="#7f9ae6"/><path d="m481.679688 161.460938c-.433594 0-.871094-.039063-1.3125-.117188-4.078126-.71875-6.800782-4.609375-6.082032-8.6875l1.652344-9.363281c.71875-4.078125 4.613281-6.800781 8.6875-6.082031 4.078125.71875 6.804688 4.609374 6.082031 8.6875l-1.648437 9.363281c-.644532 3.640625-3.808594 6.199219-7.378906 6.199219zm0 0" fill="#7f9ae6"/><path d="m.773438 194.148438c21.355468 120.183593 57.007812 145.597656 96.84375 158.875 10.21875 3.402343 20.027343-6.222657 16.683593-16.457032-11.257812-34.457031-4.828125-84.5625-18.171875-160.226562-4.699218-26.652344-30.328125-44.355469-57.003906-39.191406-26.15625 5.066406-43.011719 30.769531-38.351562 57zm0 0" fill="#a2d3ee"/><path d="m30.269531 200.777344c-3.570312 0-6.734375-2.5625-7.378906-6.199219l-1.648437-9.363281c-.71875-4.078125 2.003906-7.96875 6.082031-8.6875 4.074219-.722656 7.96875 2.003906 8.6875 6.085937l1.652343 9.359375c.71875 4.082032-2.007812 7.96875-6.085937 8.6875-.4375.078125-.878906.117188-1.308594.117188zm0 0" fill="#7f9ae6"/><path d="m68.265625 194.078125c-3.570313 0-6.734375-2.5625-7.375-6.199219l-1.652344-9.363281c-.71875-4.078125 2.003907-7.96875 6.082031-8.6875 4.082032-.726563 7.972657 2.003906 8.691407 6.082031l1.648437 9.363282c.71875 4.078124-2.003906 7.96875-6.082031 8.6875-.441406.078124-.878906.117187-1.3125.117187zm0 0" fill="#7f9ae6"/><path d="m166.3125 395.863281c-9.328125 1.644531-19.324219 1.195313-30.324219-1.1875-8.871093-1.917969-14.503906-10.667969-12.585937-19.535156 1.921875-8.871094 10.667968-14.5 19.535156-12.582031 16.289062 3.523437 30.535156 3.511718 53.003906-30.5625 4.992188-7.574219 15.183594-9.671875 22.761719-4.671875 7.578125 4.996093 9.667969 15.1875 4.671875 22.761719-18.082031 27.425781-35.828125 42.035156-57.0625 45.777343zm0 0" fill="#495059"/><path d="m191.992188 306.351562c-27.308594 17.113282-62.246094 19.023438-93.453126 5.105469-10.359374-4.621093-15.015624-16.761719-10.394531-27.125 4.621094-10.355469 16.765625-15.011719 27.125-10.390625 7.003907 3.121094 31.652344 12.175782 54.910157-2.398437 9.609374-6.023438 22.285156-3.117188 28.3125 6.496093 6.023437 9.613282 3.113281 22.289063-6.5 28.3125zm0 0" fill="#ddaf89"/><path d="m170.179688 271.542969c-6.945313 4.347656-14.011719 6.585937-20.695313 7.507812-.207031 6.574219.253906 13.195313 1.417969 19.796875 1.148437 6.527344 2.273437 13.613282 3.328125 20.984375 13.375-1.761719 26.246093-6.265625 37.761719-13.480469 9.613281-6.023437 12.519531-18.699218 6.496093-28.3125-6.023437-9.613281-18.699219-12.523437-28.308593-6.496093zm0 0" fill="#d1a582"/><path d="m338.945312 282.402344c-11-2.773438-17.667968-13.941406-14.890624-24.941406 2.773437-10.996094 13.941406-17.664063 24.9375-14.890626 26.613281 6.714844 47.28125-9.484374 52.984374-14.609374 8.4375-7.582032 21.421876-6.890626 29.007813 1.542968 7.582031 8.4375 6.890625 21.425782-1.546875 29.007813-25.414062 22.84375-59.242188 31.777343-90.492188 23.890625zm0 0" fill="#ddaf89"/><path d="m377.527344 283.886719c-1.347656-9.839844-2.730469-18.253907-3.800782-24.328125-.972656-5.5-2.433593-10.820313-4.296874-15.949219-6.238282.914063-13.109376.808594-20.4375-1.039063-11-2.773437-22.164063 3.890626-24.9375 14.890626-2.777344 11 3.890624 22.164062 14.890624 24.941406 12.679688 3.199218 25.785157 3.628906 38.582032 1.484375zm0 0" fill="#d1a582"/><path d="m360.921875 261.816406c10.273437 58.25 9.914063 99.195313 6.117187 121.273438-1.507812 8.765625-10.386718 14.238281-18.914062 11.710937-8.785156-2.601562-18.554688-4.839843-26.0625-6.421875-6.980469-1.46875-14.253906.851563-18.964844 6.203125-5.238281 5.945313-13.90625 13.933594-26.851562 20.566407-4.710938 2.410156-10.339844 2.167968-14.898438-.523438-7.457031-4.394531-14.214844-7.894531-19.417968-10.429688-5.644532-2.75-12.390626-1.894531-17.132813 2.21875-8.632813 7.476563-21.761719 14.125-36.058594 18.03125-8.164062 2.230469-16.066406-4.4375-15.375-12.871093 2.351563-28.621094-3.828125-81.921875-9.65625-114.984375-8.683593-49.25 28.421875-96.960938 82.882813-106.5625 54.460937-9.605469 105.648437 22.539062 114.332031 71.789062zm0 0" fill="#ddaf89"/><path d="m341.277344 206.242188c-20.628906 24.3125-49.542969 41.847656-83.398438 47.816406-33.855468 5.96875-67.019531-.617188-94.722656-16.410156-3.964844 7.5625-6.972656 15.5625-8.859375 23.847656-2.574219 11.289062 3.65625 22.746094 14.503906 26.785156 29.871094 11.117188 63 14.671875 96.652344 8.738281 33.65625-5.933593 63.570313-20.605469 87.835937-41.269531 8.816407-7.503906 10.746094-20.402344 4.472657-30.128906-4.609375-7.140625-10.171875-13.628906-16.484375-19.378906zm0 0" fill="#7f9ae6"/><path d="m211.667969 254.585938c-17.25-2.65625-33.664063-8.472657-48.511719-16.933594-3.964844 7.558594-6.96875 15.558594-8.859375 23.84375-2.570313 11.289062 3.65625 22.746094 14.507813 26.785156 15.527343 5.78125 31.945312 9.496094 48.855468 10.917969-8.023437-10.851563-9.496094-29.007813-5.992187-44.613281zm0 0" fill="#738cd1"/><path d="m294.039062 300.496094c0 15.445312-12.523437 27.96875-27.972656 27.96875-15.445312 0-27.96875-12.523438-27.96875-27.96875 0-15.449219 12.523438-27.972656 27.96875-27.972656 15.449219 0 27.972656 12.523437 27.972656 27.972656zm0 0" fill="#f6e06a"/><path d="m188.28125 99.699219c-4.453125.785156-9.183594.222656-13.5625-1.910157l-30.335938-14.792968c-13.28125-6.480469-29.039062-2.96875-38.316406 8.539062l-14.898437 18.476563c-7.691407 9.542969-21.664063 11.042969-31.207031 3.347656-9.539063-7.691406-11.039063-21.664063-3.347657-31.207031l14.898438-18.476563c10.742187-13.324219 25.859375-22.710937 42.5625-26.4375 16.710937-3.722656 34.378906-1.640625 49.761719 5.859375l30.335937 14.792969c11.019531 5.371094 15.59375 18.65625 10.222656 29.675781-3.238281 6.640625-9.351562 10.941406-16.113281 12.132813zm0 0" fill="#495059"/><path d="m270.484375 85.207031c-6.757813 1.191407-13.972656-.757812-19.289063-5.894531-8.816406-8.515625-9.058593-22.5625-.542968-31.378906l23.449218-24.277344c11.890626-12.308594 27.789063-20.304688 44.753907-22.523438 16.972656-2.214843 34.386719 1.4375 49.039062 10.28125l20.316407 12.269532c10.496093 6.335937 13.863281 19.980468 7.527343 30.472656-6.335937 10.492188-19.976562 13.859375-30.46875 7.523438l-20.316406-12.265626c-12.652344-7.640624-28.660156-5.550781-38.929687 5.082032l-23.445313 24.273437c-3.382813 3.503907-7.640625 5.652344-12.09375 6.4375zm0 0" fill="#495059"/><path d="m259.90625 265.554688c110.953125-19.5625 151.992188-79.207032 123.765625-148.019532-30.332031-73.949218-90.574219-106.734375-166.332031-93.378906-75.753906 13.359375-121.152344 64.769531-124.359375 144.636719-2.988281 74.316406 55.976562 116.328125 166.925781 96.761719zm0 0" fill="#ddaf89"/><path d="m182.628906 140.488281c-2.300781-13.042969-17.441406-21.273437-33.816406-18.386719-16.375 2.886719-27.789062 15.796876-25.488281 28.839844 2.296875 13.042969 17.4375 21.273438 33.8125 18.386719 16.378906-2.886719 27.789062-15.800781 25.492187-28.839844zm0 0" fill="#ffdbdb"/><path d="m289.75 121.578125c2.296875 13.042969 17.4375 21.273437 33.8125 18.386719 16.378906-2.886719 27.789062-15.796875 25.492188-28.839844-2.300782-13.042969-17.441407-21.273438-33.816407-18.386719s-27.789062 15.800781-25.488281 28.839844zm0 0" fill="#ffdbdb"/><g fill="#495059"><path d="m166.105469 126.605469c-3.574219 0-6.738281-2.558594-7.378907-6.199219l-1.847656-10.472656c-.71875-4.078125 2.003906-7.96875 6.082032-8.6875 4.078124-.714844 7.972656 2.003906 8.691406 6.082031l1.84375 10.472656c.722656 4.078125-2.003906 7.96875-6.082032 8.6875-.4375.082031-.878906.117188-1.308593.117188zm0 0"/><path d="m297.945312 103.359375c-3.570312 0-6.734374-2.5625-7.375-6.199219l-1.847656-10.472656c-.71875-4.078125 2.003906-7.96875 6.082032-8.6875 4.078124-.71875 7.972656 2.003906 8.691406 6.082031l1.84375 10.472657c.722656 4.078124-2.003906 7.96875-6.082032 8.6875-.441406.078124-.878906.117187-1.3125.117187zm0 0"/><path d="m259.941406 114.261719c-3.089844-3.175781-7.226562-5.125-11.644531-5.484375-10.664063-.871094-21.375 1.015625-31.101563 5.484375-4.027343 1.851562-7.246093 5.097656-9.066406 9.136719-2.453125 5.460937.632813 11.808593 6.4375 13.253906l15.683594 3.902344 6.429688 36.449218c.640624 3.636719 3.804687 6.199219 7.375 6.199219.433593 0 .871093-.039063 1.3125-.117187 4.078124-.71875 6.800781-4.605469 6.082031-8.6875l-6.425781-36.445313 13.402343-9.035156c4.964844-3.34375 5.6875-10.363281 1.515625-14.65625zm0 0"/></g><path d="m267.363281 183.226562c-2.59375-14.726562-14.246093-24.980468-26.023437-22.90625-11.777344 2.078126-19.222656 15.699219-16.625 30.425782 2.59375 14.726562 14.246094 24.980468 26.023437 22.902344 11.777344-2.074219 19.222657-15.695313 16.625-30.421876zm0 0" fill="#d16283"/></svg>