<?xml version="1.0" encoding="utf-8"?>
<!-- Generator: Adobe Illustrator 19.0.1, SVG Export Plug-In . SVG Version: 6.00 Build 0)  -->
<svg version="1.1" id="Layer_1" xmlns="http://www.w3.org/2000/svg" xmlns:xlink="http://www.w3.org/1999/xlink" x="0px" y="0px"
	 viewBox="0 0 150 113.3333" style="enable-background:new 0 0 150 113.3333;" xml:space="preserve">
<style type="text/css">
	.st0{fill:none;stroke:#231F20;stroke-width:4;stroke-linecap:round;stroke-linejoin:round;stroke-miterlimit:10;}
	.st1{fill:#231F20;}
	.st2{fill:#FFFFFF;}
	.st3{fill:#646464;}
</style>
<g>
	<path class="st3" d="M136.5151,12.9937c-7.3135-7.7798-18.3223-11.3687-30.1963-9.8501
		c-12.8887,1.6499-24.7275,9.1455-30.1641,19.0977c-0.4873,0.8921-0.9688,1.8477-1.4434,2.8604
		c-0.4756-1.0132-0.958-1.9688-1.4453-2.8608C67.8305,12.2891,55.9916,4.7935,43.103,3.1436
		c-11.876-1.519-22.8818,2.0698-30.1963,9.8501C2.2846,24.2925,0.1303,40.4473,7.1459,56.2085
		c2.3398,5.2568,5.5498,10.1279,9.5391,14.4785c16.4248,17.9126,33.668,29.8257,45.2402,36.6646
		c0.2178,0.1289,0.458,0.2148,0.708,0.2539c3.9687,0.6211,7.917,0.9316,11.8232,0.9316c4.2949,0,8.5381-0.376,12.6943-1.126
		c11.0918-2.002,21.5254-6.7246,29.3789-13.2979c7.0938-5.937,11.5599-12.9581,12.382-19.388
		c1.3622-1.4009,2.6292-2.7347,3.825-4.0383c7.625-8.3154,12.3818-18.5107,13.3945-28.708
		C147.2338,30.8809,143.9086,20.8579,136.5151,12.9937z M15.8207,15.7339c6.4258-6.8359,16.1875-9.9785,26.7744-8.6226
		c11.6582,1.4922,22.3193,8.1836,27.1602,17.0459c0.9581,1.7552,1.9007,3.8008,2.8091,6.0649l-1.4956,3.9654h-9.083
		c-3.6113,0-6.9678,1.6235-9.21,4.4541c-1.2795,1.6154-2.0754,3.4974-2.3846,5.4663c-0.0269,0.0171-0.0559,0.0278-0.0822,0.0464
		c-9.5889,6.7808-21.2041,4.4067-23.4824,2.3574c-0.8232-0.7393-2.085-0.6709-2.8252,0.1494
		c-0.7383,0.8213-0.6709,2.0859,0.1494,2.8242c1.9707,1.772,6.3721,3.1382,11.6143,3.1382c4.6462,0,9.952-1.074,14.808-3.8907
		l3.9137,16.6305c0.4152,1.7661,1.2578,3.3326,2.4033,4.6025c-0.2163-0.0121-0.4338-0.0184-0.6498-0.0317
		c-0.6547-0.0403-1.3053-0.0952-1.957-0.1465c-0.426-0.0335-0.8539-0.0604-1.2784-0.0986c-0.6441-0.0579-1.283-0.1302-1.9232-0.1988
		c-0.4271-0.0458-0.8566-0.0851-1.2819-0.1356c-0.6353-0.0754-1.2642-0.165-1.8948-0.251c-0.424-0.0579-0.8508-0.1094-1.2723-0.172
		c-0.6207-0.0922-1.2341-0.1981-1.8493-0.3004c-0.425-0.0707-0.8534-0.1354-1.2755-0.211
		c-0.6011-0.1077-1.1937-0.2288-1.7885-0.3462c-0.4277-0.0845-0.8593-0.1631-1.2836-0.2526
		c-0.5836-0.1232-1.1575-0.2594-1.7341-0.3921c-0.4254-0.0979-0.855-0.1901-1.2765-0.2932
		c-0.5614-0.1373-1.1122-0.2874-1.6661-0.4337c-0.4265-0.1127-0.8574-0.2201-1.2792-0.3382
		c-0.5391-0.1509-1.0667-0.3145-1.5977-0.4742c-0.4232-0.1273-0.8512-0.2495-1.269-0.3823
		c-0.5197-0.1653-1.0268-0.3427-1.5377-0.5165c-0.4153-0.1413-0.8359-0.2776-1.2452-0.4246
		c-0.4982-0.1788-0.983-0.3695-1.4719-0.5566c-0.4074-0.1559-0.8203-0.3071-1.2209-0.4688
		c-0.4736-0.191-0.9329-0.3937-1.3967-0.5928c-0.3997-0.1715-0.8051-0.3386-1.1973-0.516
		c-0.4476-0.2025-0.8801-0.4163-1.3176-0.6264c-0.3909-0.1877-0.7875-0.3713-1.17-0.5651c-0.423-0.2144-0.8303-0.4398-1.2427-0.6616
		c-0.3771-0.2028-0.7601-0.4016-1.1281-0.6106c-0.3994-0.2268-0.782-0.4644-1.1703-0.6985c-0.361-0.2177-0.728-0.4313-1.0791-0.6553
		c-0.374-0.2384-0.7305-0.4874-1.0928-0.7329c-0.3438-0.2328-0.6936-0.4621-1.0266-0.7013
		c-0.347-0.2493-0.6759-0.5087-1.0109-0.7648c-0.3255-0.2488-0.6572-0.4941-0.971-0.7493
		c-0.3203-0.2604-0.6217-0.5308-0.9296-0.7979c-0.2605-0.2261-0.5248-0.4501-0.7763-0.6808
		C4.4994,40.0748,6.4263,25.7262,15.8207,15.7339z M86.4399,103.4756c-7.377,1.3301-15.0479,1.4092-22.8105,0.2363
		c-11.3359-6.7314-28.0596-18.3477-43.9961-35.728c-1.5654-1.707-3.001-3.499-4.2998-5.3682
		c0.0919,0.0554,0.1893,0.1078,0.2819,0.1628c0.206,0.1224,0.418,0.2414,0.6271,0.3621c0.5161,0.2979,1.0408,0.5909,1.5757,0.8784
		c0.2379,0.1279,0.4758,0.2555,0.7173,0.3813c0.6021,0.3135,1.2159,0.62,1.84,0.9202c0.1547,0.0745,0.3046,0.1518,0.4607,0.2254
		c0.7764,0.3663,1.5706,0.7214,2.379,1.067c0.2181,0.0932,0.4418,0.1823,0.6621,0.274c0.613,0.2551,1.2335,0.5049,1.8635,0.748
		c0.2752,0.1062,0.5515,0.2112,0.8298,0.3151c0.6491,0.2422,1.3074,0.4771,1.9731,0.7065c0.2204,0.0759,0.437,0.1546,0.6592,0.2291
		c0.8787,0.2946,1.7705,0.5785,2.6763,0.8505c0.2012,0.0604,0.4073,0.1165,0.6098,0.1757c0.7218,0.2114,1.4507,0.416,2.1885,0.6128
		c0.3009,0.0802,0.6035,0.1584,0.907,0.2362c0.6978,0.1789,1.4026,0.3506,2.1136,0.5163c0.2697,0.0629,0.5369,0.1281,0.8085,0.189
		c0.9669,0.2171,1.9431,0.4242,2.9323,0.6166c0.1414,0.0275,0.2858,0.0513,0.4277,0.0783c0.8568,0.1631,1.7215,0.3164,2.5936,0.4607
		c0.316,0.0522,0.6341,0.1014,0.9521,0.1512c0.7421,0.1161,1.4893,0.2252,2.2415,0.3275c0.31,0.0422,0.6186,0.0859,0.9302,0.1257
		c1.0392,0.1328,2.0845,0.2566,3.1412,0.3627c18.8917,1.8968,38.1484-0.832,52.8676-7.4824
		c1.8895-0.6588,3.3553-0.6492,3.6558,0.0269c0.2637,0.5967-0.0723,1.4995-0.416,1.6851
		c-3.0811,1.6592-13.1416,5.6191-13.2422,5.6592c-1.0283,0.4043-1.5342,1.5649-1.1299,2.5928
		c0.3096,0.7881,1.0635,1.2695,1.8623,1.2695c0.2432,0,0.4902-0.0449,0.7305-0.1396c0.4229-0.166,10.3857-4.0879,13.6758-5.8604
		c1.3459-0.725,2.2383-2.1725,2.5101-3.7381l0.0983-0.0651c1.2783-0.8438,3.209-2.1191,4.8018-3.2671
		c0.7627-0.5503,1.7822-0.5552,2.5371-0.0127c0.357,0.257,0.6962,0.5145,1.02,0.7717
		c-5.4499,6.8188-14.9362,10.5092-15.0356,10.5472c-1.0303,0.395-1.5479,1.5503-1.1543,2.5815
		c0.3047,0.7979,1.0635,1.2881,1.8691,1.2881c0.2363,0,0.4766-0.043,0.7109-0.1318c0.4409-0.1679,10.313-3.9938,16.4744-11.4664
		c0.6688,0.8656,1.115,1.698,1.2825,2.462c0.0955,0.4365,0.1549,0.9031,0.1887,1.3889
		c-5.4382,6.8828-15.0161,10.6069-15.1135,10.6439c-1.0303,0.3945-1.5479,1.5498-1.1543,2.5811
		c0.3047,0.7979,1.0635,1.2881,1.8691,1.2881c0.2363,0,0.4766-0.043,0.7109-0.1318c0.3419-0.1301,6.7488-2.6102,12.4536-7.4324
		C119.074,90.4938,101.9726,100.6721,86.4399,103.4756z M129.7895,67.9834c-0.3644,0.397-0.7347,0.7965-1.1107,1.1992
		c-0.879-3.4081-4.0863-6.3156-6.6657-8.1723c-2.1523-1.5483-5.0518-1.5444-7.2119,0.0142
		c-1.1205,0.8071-2.4343,1.6924-3.5495,2.4338c-1.0393-1.2794-3.3289-2.7653-8.0306-1.111
		c-0.0274,0.0096-0.0505,0.0255-0.0772,0.0363c-0.0281,0.0112-0.0571,0.0161-0.0849,0.0287
		c-0.9026,0.4098-1.8209,0.8027-2.7534,1.1791c-0.4236,0.171-0.8604,0.3264-1.2898,0.4905
		c-0.5162,0.1973-1.0266,0.4017-1.5507,0.5892c-0.4824,0.1725-0.9772,0.3287-1.4661,0.4929
		c-0.4841,0.1626-0.9623,0.3331-1.4524,0.4875c-0.5321,0.1677-1.0757,0.3187-1.6145,0.4768c-0.458,0.1344-0.9105,0.277-1.373,0.4046
		c-0.5601,0.1544-1.1302,0.2922-1.6965,0.4365c-0.4523,0.1153-0.8995,0.2388-1.3556,0.3477
		c-0.5875,0.1403-1.1839,0.264-1.7772,0.3937c-0.4429,0.0968-0.8815,0.2018-1.3275,0.2928
		c-0.6151,0.1255-1.2379,0.2345-1.8582,0.3489c-0.432,0.0797-0.8604,0.1674-1.2947,0.2416
		c-0.6344,0.1085-1.2751,0.2006-1.9141,0.2975c-0.4265,0.0648-0.85,0.1375-1.2783,0.1971c-0.6389,0.0891-1.283,0.1621-1.9254,0.2399
		c-0.2234,0.0271-0.446,0.0568-0.6698,0.0825c-0.0814-0.0101-0.1615-0.0248-0.2457-0.0248H64.6157
		c-2.9873,0-5.5508-2.0308-6.2344-4.9385l-0.4723-2.0069c2.3503,0.7395,6.0826,1.5303,11.3424,1.5303
		c10.3643,0,14.6152-8.6768,14.791-9.0459c0.4736-0.9941,0.0527-2.1797-0.9395-2.6572c-0.9912-0.478-2.1855-0.061-2.668,0.9292
		c-0.1348,0.2769-3.3916,6.7739-11.1836,6.7739c-6.0322,0-9.7402-1.1279-11.3672-1.7729v-8.0854
		c0-0.2667-0.0544-0.5202-0.1492-0.7529h1.9055c1.6108,0,2.9167-1.3058,2.9167-2.9167v-0.7547c0-1.6108-1.3058-2.9167-2.9167-2.9167
		h-4.7232c0.2609-0.5798,0.5885-1.1346,0.9943-1.6469c1.4785-1.8667,3.6924-2.9375,6.0742-2.9375h10.4668
		c0.832,0,1.5781-0.5156,1.8711-1.2944l2.2548-5.9807c0.992-2.5453,2.0307-4.8182,3.087-6.7547
		c4.8418-8.8628,15.5029-15.5542,27.1611-17.0464c10.5869-1.354,20.3486,1.7876,26.7744,8.6226
		c7.2348,7.6954,9.5562,17.0735,8.4966,26.3019c-0.1818,0.0117-0.3645,0.0392-0.5445,0.1033
		c-0.1611,0.0576-16.1553,5.7285-24.7725,4.498c-2.7949-0.3989-4.6387-8.8911-2.4609-26.9634
		c0.1328-1.0967-0.6494-2.0928-1.7461-2.2251c-1.0908-0.1367-2.0928,0.6489-2.2246,1.7466
		c-2.4033,19.9375-0.4297,30.5024,5.8652,31.4019c1.0117,0.1445,2.0977,0.209,3.2334,0.209c7.8394,0,18.0156-3.0896,21.8873-4.3669
		C139.5134,54.3493,135.3416,61.9283,129.7895,67.9834z"/>
	<circle class="st3" cx="95.322" cy="41.6754" r="4.6293"/>
	<circle class="st3" cx="21.9053" cy="37.1977" r="4.6293"/>
	<circle class="st3" cx="52.2716" cy="26.1065" r="4.6293"/>
</g>
</svg>
